<svg viewBox="0 0 160 36" fill="none" xmlns="http://www.w3.org/2000/svg">
  <defs>
    <linearGradient id="hg-grad" x1="4" y1="2" x2="28" y2="36" gradientUnits="userSpaceOnUse">
      <stop stop-color="#c4b5fd"/>
      <stop offset="1" stop-color="#818cf8"/>
    </linearGradient>
    <linearGradient id="hg-text" x1="48" y1="10" x2="153" y2="26" gradientUnits="userSpaceOnUse">
      <stop stop-color="#c4b5fd"/>
      <stop offset="1" stop-color="#818cf8"/>
    </linearGradient>
  </defs>
  <!-- Subtle glass circle behind shield -->
  <circle cx="18" cy="18" r="14.5" fill="rgba(196,181,253,0.06)" stroke="rgba(196,181,253,0.10)" stroke-width="0.8"/>
  <!-- Shield -->
  <path d="M18 4L31 10V22Q31 30 18 33Q5 30 5 22V10L18 4Z" fill="rgba(196,181,253,0.10)"/>
  <path d="M18 4L31 10V22Q31 30 18 33Q5 30 5 22V10L18 4Z" stroke="url(#hg-grad)" stroke-width="1.5"/>
  <!-- Database cylinder -->
  <ellipse cx="18" cy="16" rx="7" ry="3" fill="rgba(196,181,253,0.12)" stroke="url(#hg-grad)" stroke-width="1.2"/>
  <rect x="11" y="16" width="14" height="6" fill="rgba(196,181,253,0.06)"/>
  <line x1="11" y1="16" x2="11" y2="22" stroke="url(#hg-grad)" stroke-width="1.2"/>
  <line x1="25" y1="16" x2="25" y2="22" stroke="url(#hg-grad)" stroke-width="1.2"/>
  <ellipse cx="18" cy="22" rx="7" ry="3" fill="rgba(196,181,253,0.12)" stroke="url(#hg-grad)" stroke-width="1.2"/>
  <line x1="12" y1="18" x2="24" y2="18" stroke="url(#hg-grad)" stroke-width="0.8" stroke-linecap="round"/>
  <line x1="12" y1="20" x2="24" y2="20" stroke="url(#hg-grad)" stroke-width="0.8" stroke-linecap="round"/>
  <!-- Text -->
  <text x="46" y="27" font-family="Inter, -apple-system, sans-serif" font-size="22" font-weight="700" letter-spacing="-0.5" fill="url(#hg-text)">Backupeer</text>
</svg>
