<svg viewBox="0 0 32 32" fill="none" xmlns="http://www.w3.org/2000/svg">
  <defs>
    <linearGradient id="ss-grad" x1="4" y1="2" x2="28" y2="32" gradientUnits="userSpaceOnUse">
      <stop stop-color="#c4b5fd"/>
      <stop offset="1" stop-color="#818cf8"/>
    </linearGradient>
  </defs>
  <!-- Subtle glass circle behind shield -->
  <circle cx="16" cy="16" r="14.5" fill="rgba(196,181,253,0.06)" stroke="rgba(196,181,253,0.10)" stroke-width="0.8"/>
  <!-- Shield -->
  <path d="M16 3L29 9V21Q29 29 16 32Q3 29 3 21V9L16 3Z" fill="rgba(196,181,253,0.10)"/>
  <path d="M16 3L29 9V21Q29 29 16 32Q3 29 3 21V9L16 3Z" stroke="url(#ss-grad)" stroke-width="1.5"/>
  <!-- Database cylinder - top ellipse -->
  <ellipse cx="16" cy="14" rx="7" ry="3" fill="rgba(196,181,253,0.12)" stroke="url(#ss-grad)" stroke-width="1.2"/>
  <!-- Database cylinder - body -->
  <rect x="9" y="14" width="14" height="6" fill="rgba(196,181,253,0.06)"/>
  <line x1="9" y1="14" x2="9" y2="20" stroke="url(#ss-grad)" stroke-width="1.2"/>
  <line x1="23" y1="14" x2="23" y2="20" stroke="url(#ss-grad)" stroke-width="1.2"/>
  <!-- Database cylinder - bottom ellipse -->
  <ellipse cx="16" cy="20" rx="7" ry="3" fill="rgba(196,181,253,0.12)" stroke="url(#ss-grad)" stroke-width="1.2"/>
  <!-- Database lines -->
  <line x1="10" y1="16" x2="22" y2="16" stroke="url(#ss-grad)" stroke-width="0.8" stroke-linecap="round"/>
  <line x1="10" y1="18" x2="22" y2="18" stroke="url(#ss-grad)" stroke-width="0.8" stroke-linecap="round"/>
</svg>
